<svg width="16" height="17" viewBox="0 0 16 17" fill="none" xmlns="http://www.w3.org/2000/svg">
  <g clip-path="url(#clip0_519_5948)">
    <path
      d="M15.2846 4.66187C15.0602 4.10765 14.7366 3.60542 14.332 3.1833C13.9271 2.75991 13.4497 2.42346 12.9258 2.19222C12.3825 1.9515 11.7998 1.82828 11.2115 1.82972C10.3862 1.82972 9.58091 2.0708 8.88114 2.52615C8.71373 2.63508 8.55469 2.75472 8.40402 2.88508C8.25335 2.75472 8.09431 2.63508 7.9269 2.52615C7.22712 2.0708 6.42187 1.82972 5.59654 1.82972C5.00223 1.82972 4.42634 1.95115 3.88225 2.19222C3.35658 2.42437 2.88281 2.7583 2.476 3.1833C2.07086 3.60494 1.74723 4.10729 1.52344 4.66187C1.29074 5.23865 1.17188 5.85115 1.17188 6.48151C1.17188 7.07615 1.28571 7.6958 1.51172 8.32615C1.70089 8.85294 1.9721 9.39937 2.31864 9.95115C2.86775 10.8244 3.62277 11.7351 4.56027 12.6583C6.11384 14.1887 7.65234 15.2458 7.71763 15.2887L8.1144 15.5601C8.29018 15.6797 8.51618 15.6797 8.69196 15.5601L9.08873 15.2887C9.15402 15.244 10.6908 14.1887 12.2461 12.6583C13.1836 11.7351 13.9386 10.8244 14.4877 9.95115C14.8343 9.39937 15.1071 8.85294 15.2946 8.32615C15.5206 7.6958 15.6345 7.07615 15.6345 6.48151C15.6362 5.85115 15.5173 5.23865 15.2846 4.66187ZM8.40402 14.1476C8.40402 14.1476 2.4442 10.0744 2.4442 6.48151C2.4442 4.66187 3.85547 3.18687 5.59654 3.18687C6.82031 3.18687 7.8817 3.91544 8.40402 4.97972C8.92634 3.91544 9.98772 3.18687 11.2115 3.18687C12.9526 3.18687 14.3638 4.66187 14.3638 6.48151C14.3638 10.0744 8.40402 14.1476 8.40402 14.1476Z"
      fill="#8E8E8E" />
  </g>
  <defs>
    <clipPath id="clip0_519_5948">
      <rect width="15" height="16" fill="white" transform="translate(0.903809 0.743652)" />
    </clipPath>
  </defs>
</svg>
