<svg width="17" height="17" viewBox="0 0 17 17" fill="none" xmlns="http://www.w3.org/2000/svg">
  <g clip-path="url(#clip0_519_5951)">
    <path
      d="M10.9928 11.0679C11.4249 10.8357 11.9196 10.7036 12.4463 10.7036H12.4481C12.5017 10.7036 12.5267 10.6393 12.4874 10.6036C11.9396 10.112 11.3138 9.71486 10.6356 9.4286C10.6285 9.42502 10.6213 9.42324 10.6142 9.41967C11.7231 8.61431 12.4446 7.30538 12.4446 5.8286C12.4446 3.38217 10.466 1.40002 8.02492 1.40002C5.58385 1.40002 3.60706 3.38217 3.60706 5.8286C3.60706 7.30538 4.32849 8.61431 5.4392 9.41967C5.43206 9.42324 5.42492 9.42502 5.41778 9.4286C4.61956 9.7661 3.90349 10.25 3.28742 10.8679C2.67491 11.4793 2.18726 12.2041 1.8517 13.0018C1.52155 13.783 1.34337 14.62 1.3267 15.4679C1.32623 15.4869 1.32957 15.5059 1.33654 15.5236C1.3435 15.5414 1.35395 15.5576 1.36726 15.5712C1.38058 15.5849 1.39649 15.5957 1.41406 15.6031C1.43162 15.6105 1.4505 15.6143 1.46956 15.6143H2.5392C2.61599 15.6143 2.68028 15.5518 2.68206 15.475C2.71778 14.0965 3.26956 12.8054 4.24635 11.8268C5.25528 10.8143 6.59813 10.2572 8.02671 10.2572C9.03921 10.2572 10.0106 10.5375 10.8481 11.0625C10.8696 11.076 10.8943 11.0837 10.9197 11.0846C10.9451 11.0855 10.9703 11.0798 10.9928 11.0679ZM8.02671 8.90002C7.20885 8.90002 6.4392 8.58038 5.85885 8.00002C5.5733 7.71522 5.34693 7.37673 5.19278 7.00406C5.03862 6.63138 4.95972 6.23189 4.96063 5.8286C4.96063 5.00895 5.28028 4.23752 5.85885 3.65717C6.43742 3.07681 7.20706 2.75717 8.02671 2.75717C8.84635 2.75717 9.6142 3.07681 10.1946 3.65717C10.4801 3.94197 10.7065 4.28046 10.8606 4.65313C11.0148 5.02581 11.0937 5.4253 11.0928 5.8286C11.0928 6.64824 10.7731 7.41967 10.1946 8.00002C9.6142 8.58038 8.84456 8.90002 8.02671 8.90002ZM14.5946 13.15H13.0946V11.65C13.0946 11.5715 13.0303 11.5072 12.9517 11.5072H11.9517C11.8731 11.5072 11.8088 11.5715 11.8088 11.65V13.15H10.3088C10.2303 13.15 10.166 13.2143 10.166 13.2929V14.2929C10.166 14.3715 10.2303 14.4357 10.3088 14.4357H11.8088V15.9357C11.8088 16.0143 11.8731 16.0786 11.9517 16.0786H12.9517C13.0303 16.0786 13.0946 16.0143 13.0946 15.9357V14.4357H14.5946C14.6731 14.4357 14.7374 14.3715 14.7374 14.2929V13.2929C14.7374 13.2143 14.6731 13.15 14.5946 13.15Z"
      fill="#8E8E8E" />
  </g>
  <defs>
    <clipPath id="clip0_519_5951">
      <rect width="16" height="16" fill="white" transform="translate(0.0229492 0.743652)" />
    </clipPath>
  </defs>
</svg>
