<svg width="52" height="53" viewBox="0 0 52 53" fill="none" xmlns="http://www.w3.org/2000/svg">
  <path fill-rule="evenodd" clip-rule="evenodd"
    d="M6.78491 11.6497C6.78491 6.93315 10.6084 3.10962 15.325 3.10962H33.1378C35.4028 3.10962 37.575 4.00938 39.1765 5.61095L42.714 9.14837C44.3155 10.7499 45.2153 12.9222 45.2153 15.1871V41.54C45.2153 46.2566 41.3918 50.0801 36.6752 50.0801H15.325C10.6084 50.0801 6.78491 46.2566 6.78491 41.54V11.6497ZM40.9452 18.0548V41.54C40.9452 43.8983 39.0335 45.81 36.6752 45.81H15.325C12.9667 45.81 11.055 43.8983 11.055 41.54V11.6497C11.055 9.29142 12.9667 7.37966 15.325 7.37966H30.2701V11.6497C30.2701 15.1871 33.1378 18.0548 36.6752 18.0548H40.9452ZM40.7084 13.7847C40.4987 13.1818 40.1545 12.6277 39.6946 12.1677L36.1572 8.63033C35.6972 8.17037 35.1431 7.82618 34.5402 7.61652V11.6497C34.5402 12.8288 35.4961 13.7847 36.6752 13.7847H40.7084Z"
    fill="#141416" />
  <path
    d="M25.1826 20.3519C24.9307 20.4561 24.6948 20.6105 24.4901 20.8152L18.0851 27.2203C17.2513 28.0541 17.2513 29.4059 18.0851 30.2397C18.9188 31.0734 20.2706 31.0734 21.1044 30.2397L23.8648 27.4793V37.27C23.8648 38.4492 24.8207 39.4051 25.9998 39.4051C27.1789 39.4051 28.1348 38.4492 28.1348 37.27V27.4793L30.8952 30.2397C31.729 31.0734 33.0808 31.0734 33.9146 30.2397C34.7483 29.4059 34.7483 28.0541 33.9146 27.2203L27.5095 20.8152C26.8804 20.1861 25.9564 20.0317 25.1826 20.3519Z"
    fill="#141416" />
</svg>
