<svg width="223" height="53" viewBox="0 0 223 53" fill="none" xmlns="http://www.w3.org/2000/svg">
<path d="M75.9531 14.8477V33H72.0859V14.8477H75.9531ZM92.1016 33H88.3398V25.7695C88.3398 23.6758 87.5859 22.6289 86.0781 22.6289C85.3594 22.6289 84.7617 22.9102 84.2852 23.4727C83.8086 24.0273 83.5703 24.7383 83.5703 25.6055V33H79.7852V20.0391H83.5703V22.1016H83.6172C84.5625 20.5156 85.9531 19.7227 87.7891 19.7227C90.6641 19.7227 92.1016 21.5039 92.1016 25.0664V33ZM107.664 33H103.902V25.7695C103.902 23.6758 103.148 22.6289 101.641 22.6289C100.922 22.6289 100.324 22.9102 99.8477 23.4727C99.3711 24.0273 99.1328 24.7383 99.1328 25.6055V33H95.3477V20.0391H99.1328V22.1016H99.1797C100.125 20.5156 101.516 19.7227 103.352 19.7227C106.227 19.7227 107.664 21.5039 107.664 25.0664V33ZM110.137 26.5781C110.137 24.4453 110.773 22.7695 112.047 21.5508C113.328 20.332 115.047 19.7227 117.203 19.7227C119.289 19.7227 120.945 20.3242 122.172 21.5273C123.398 22.7227 124.012 24.332 124.012 26.3555C124.012 28.4805 123.383 30.1719 122.125 31.4297C120.867 32.6875 119.164 33.3164 117.016 33.3164C114.906 33.3164 113.23 32.7148 111.988 31.5117C110.754 30.3008 110.137 28.6562 110.137 26.5781ZM113.969 26.5312C113.969 29.1172 115.023 30.4102 117.133 30.4102C119.156 30.4102 120.168 29.082 120.168 26.4258C120.168 23.8945 119.148 22.6289 117.109 22.6289C116.117 22.6289 115.344 22.9688 114.789 23.6484C114.242 24.3281 113.969 25.2891 113.969 26.5312ZM138.789 20.0391L133.926 33H129.648L125.02 20.0391H129.074L131.453 28.1953C131.711 29.0859 131.855 29.832 131.887 30.4336H131.945C132.008 29.8164 132.16 29.0938 132.402 28.2656L134.828 20.0391H138.789ZM140.852 20.8242C141.438 20.4961 142.219 20.2305 143.195 20.0273C144.18 19.8242 145.02 19.7227 145.715 19.7227C149.34 19.7227 151.152 21.5391 151.152 25.1719V33H147.555V31.1133H147.508C146.625 32.582 145.332 33.3164 143.629 33.3164C142.402 33.3164 141.418 32.9688 140.676 32.2734C139.941 31.5703 139.574 30.6172 139.574 29.4141C139.574 26.9297 141.055 25.4844 144.016 25.0781L147.578 24.5977C147.578 23.0898 146.793 22.3359 145.223 22.3359C143.676 22.3359 142.219 22.8047 140.852 23.7422V20.8242ZM145.129 27.1289C143.762 27.3086 143.078 27.9258 143.078 28.9805C143.078 29.4648 143.242 29.8555 143.57 30.1523C143.906 30.4492 144.355 30.5977 144.918 30.5977C145.691 30.5977 146.328 30.3242 146.828 29.7773C147.328 29.2305 147.578 28.5508 147.578 27.7383V26.8125L145.129 27.1289ZM167.734 32.3438C166.414 32.9922 164.691 33.3164 162.566 33.3164C159.832 33.3164 157.66 32.5 156.051 30.8672C154.449 29.2266 153.648 27.043 153.648 24.3164C153.648 21.4492 154.543 19.1055 156.332 17.2852C158.129 15.457 160.445 14.543 163.281 14.543C165.055 14.543 166.539 14.7734 167.734 15.2344V18.9727C166.508 18.2539 165.117 17.8945 163.562 17.8945C161.789 17.8945 160.371 18.4609 159.309 19.5938C158.246 20.7266 157.715 22.207 157.715 24.0352C157.715 25.8164 158.219 27.25 159.227 28.3359C160.234 29.4219 161.598 29.9648 163.316 29.9648C164.934 29.9648 166.406 29.5742 167.734 28.793V32.3438ZM182.828 33H179.055V25.6172C179.055 23.625 178.328 22.6289 176.875 22.6289C176.148 22.6289 175.547 22.9062 175.07 23.4609C174.602 24.0156 174.367 24.7344 174.367 25.6172V33H170.582V13.8164H174.367V21.9844H174.414C175.406 20.4766 176.742 19.7227 178.422 19.7227C181.359 19.7227 182.828 21.4961 182.828 25.043V33ZM186.391 20.8242C186.977 20.4961 187.758 20.2305 188.734 20.0273C189.719 19.8242 190.559 19.7227 191.254 19.7227C194.879 19.7227 196.691 21.5391 196.691 25.1719V33H193.094V31.1133H193.047C192.164 32.582 190.871 33.3164 189.168 33.3164C187.941 33.3164 186.957 32.9688 186.215 32.2734C185.48 31.5703 185.113 30.6172 185.113 29.4141C185.113 26.9297 186.594 25.4844 189.555 25.0781L193.117 24.5977C193.117 23.0898 192.332 22.3359 190.762 22.3359C189.215 22.3359 187.758 22.8047 186.391 23.7422V20.8242ZM190.668 27.1289C189.301 27.3086 188.617 27.9258 188.617 28.9805C188.617 29.4648 188.781 29.8555 189.109 30.1523C189.445 30.4492 189.895 30.5977 190.457 30.5977C191.23 30.5977 191.867 30.3242 192.367 29.7773C192.867 29.2305 193.117 28.5508 193.117 27.7383V26.8125L190.668 27.1289ZM199.609 15.8555C199.609 15.2773 199.812 14.8086 200.219 14.4492C200.633 14.082 201.16 13.8984 201.801 13.8984C202.457 13.8984 202.988 14.0859 203.395 14.4609C203.801 14.8281 204.004 15.293 204.004 15.8555C204.004 16.4258 203.797 16.9023 203.383 17.2852C202.969 17.6602 202.441 17.8477 201.801 17.8477C201.168 17.8477 200.645 17.6562 200.23 17.2734C199.816 16.8906 199.609 16.418 199.609 15.8555ZM199.891 33V20.0391H203.664V33H199.891ZM219.367 33H215.605V25.7695C215.605 23.6758 214.852 22.6289 213.344 22.6289C212.625 22.6289 212.027 22.9102 211.551 23.4727C211.074 24.0273 210.836 24.7383 210.836 25.6055V33H207.051V20.0391H210.836V22.1016H210.883C211.828 20.5156 213.219 19.7227 215.055 19.7227C217.93 19.7227 219.367 21.5039 219.367 25.0664V33Z" fill="url(#paint0_linear_519_5885)"/>
<path d="M6 36.0693L6 18.9792L20.3593 11.0147L34.7186 18.9792V36.0693L20.3593 44.7314L6 36.0693Z" stroke="#5FDFE9" stroke-width="8"/>
<path opacity="0.75" d="M26.9688 12.1337L37.9843 6L48.9999 12.1337V25.2069L37.9843 31.8779L26.9688 25.2069" stroke="#5FDFE9" stroke-width="4"/>
<defs>
<linearGradient id="paint0_linear_519_5885" x1="70" y1="23" x2="191.223" y2="23" gradientUnits="userSpaceOnUse">
<stop stop-color="#C932F3"/>
<stop offset="0.5" stop-color="#748BCF"/>
<stop offset="1" stop-color="#5FDFE9"/>
</linearGradient>
</defs>
</svg>
