<svg width="1242" height="258" viewBox="0 0 1242 258" fill="none" xmlns="http://www.w3.org/2000/svg">
    <path
        d="M244.44 205L327.864 6.20799H329.448L412.608 205H383.304L321 46.336L339.216 34.456L269.52 205H244.44ZM293.28 132.664H364.296L372.744 154.84H285.888L293.28 132.664ZM464.398 95.704L466.774 127.384L465.454 123.16C468.27 116.472 472.318 110.84 477.598 106.264C483.054 101.512 488.686 97.904 494.494 95.44C500.478 92.8 505.67 91.48 510.07 91.48L508.75 115.768C500.478 115.24 493.174 116.824 486.838 120.52C480.678 124.216 475.75 129.144 472.054 135.304C468.534 141.464 466.774 148.064 466.774 155.104V205H442.486V95.704H464.398ZM552.303 47.656H576.855V96.232H606.951V115.504H576.855V205H552.303V115.504H532.239V96.232H552.303V47.656ZM782.874 190.744C779.706 192.856 775.394 195.232 769.938 197.872C764.482 200.512 758.058 202.712 750.666 204.472C743.45 206.232 735.53 207.112 726.906 207.112C712.122 206.936 698.746 204.296 686.778 199.192C674.986 194.088 664.954 187.136 656.682 178.336C648.41 169.536 641.986 159.416 637.41 147.976C633.01 136.36 630.81 124.04 630.81 111.016C630.81 96.76 633.098 83.648 637.674 71.68C642.426 59.536 649.026 49.064 657.474 40.264C665.922 31.288 675.866 24.336 687.306 19.408C698.922 14.48 711.594 12.016 725.322 12.016C736.762 12.016 747.146 13.6 756.474 16.768C765.802 19.76 773.81 23.368 780.498 27.592L770.202 51.352C764.922 47.832 758.498 44.488 750.93 41.32C743.538 38.152 735.266 36.568 726.114 36.568C716.786 36.568 707.986 38.416 699.714 42.112C691.442 45.808 684.138 51 677.802 57.688C671.466 64.376 666.45 72.208 662.754 81.184C659.234 89.984 657.474 99.488 657.474 109.696C657.474 120.08 659.058 129.76 662.226 138.736C665.57 147.536 670.234 155.192 676.218 161.704C682.378 168.216 689.77 173.32 698.394 177.016C707.018 180.712 716.698 182.56 727.434 182.56C737.114 182.56 745.738 181.064 753.306 178.072C760.874 175.08 767.122 171.736 772.05 168.04L782.874 190.744ZM829.163 257.536L901.235 95.704H923.939L853.451 257.536H829.163ZM856.091 205.792L803.555 95.704H831.275L875.363 193.384L856.091 205.792ZM1036.5 194.968C1031.57 198.84 1025.68 201.92 1018.81 204.208C1011.95 206.496 1005.09 207.64 998.222 207.64C986.254 207.64 975.782 205.264 966.806 200.512C957.83 195.76 950.79 189.16 945.686 180.712C940.758 172.088 938.294 161.968 938.294 150.352C938.294 138.736 940.934 128.616 946.214 119.992C951.67 111.368 958.71 104.768 967.334 100.192C976.134 95.44 985.55 93.064 995.582 93.064C1004.38 93.064 1012.21 94.296 1019.08 96.76C1026.12 99.224 1032.1 102.568 1037.03 106.792L1024.89 122.632C1021.72 120.168 1017.85 117.968 1013.27 116.032C1008.69 114.096 1003.5 113.128 997.694 113.128C991.358 113.128 985.462 114.8 980.006 118.144C974.726 121.312 970.502 125.712 967.334 131.344C964.342 136.976 962.846 143.312 962.846 150.352C962.846 157.04 964.43 163.288 967.598 169.096C970.766 174.728 975.166 179.216 980.798 182.56C986.43 185.728 992.854 187.312 1000.07 187.312C1004.82 187.312 1009.13 186.608 1013.01 185.2C1017.05 183.792 1020.66 181.856 1023.83 179.392L1036.5 194.968ZM1068.2 0.663987H1092.75V205H1068.2V0.663987ZM1185.92 207.64C1173.42 207.64 1162.68 205.176 1153.71 200.248C1144.73 195.144 1137.78 188.28 1132.85 179.656C1128.1 170.856 1125.72 160.824 1125.72 149.56C1125.72 138.824 1128.45 129.056 1133.91 120.256C1139.36 111.456 1146.67 104.416 1155.82 99.136C1164.97 93.856 1175.18 91.216 1186.44 91.216C1200.88 91.216 1212.84 95.44 1222.35 103.888C1231.85 112.336 1238.28 123.952 1241.62 138.736L1151.6 170.416L1145.79 155.896L1219.71 128.968L1214.43 132.4C1212.32 126.592 1208.8 121.576 1203.87 117.352C1198.94 112.952 1192.52 110.752 1184.6 110.752C1177.91 110.752 1171.92 112.424 1166.64 115.768C1161.36 118.936 1157.23 123.336 1154.24 128.968C1151.24 134.6 1149.75 141.024 1149.75 148.24C1149.75 155.808 1151.33 162.496 1154.5 168.304C1157.67 173.936 1161.98 178.424 1167.44 181.768C1173.07 184.936 1179.4 186.52 1186.44 186.52C1191.2 186.52 1195.77 185.64 1200.17 183.88C1204.75 182.12 1208.97 179.832 1212.84 177.016L1224.2 195.232C1218.74 198.928 1212.58 201.92 1205.72 204.208C1199.03 206.496 1192.43 207.64 1185.92 207.64Z"
        fill="url(#paint0_linear_14_91)" />
    <path fill-rule="evenodd" clip-rule="evenodd"
        d="M145.86 68.4451L84.0179 34.1443L22.1762 68.4451L22.1762 142.19L84.0179 179.495L145.86 142.19V68.4451ZM168.036 154.711V55.3863L84.0179 8.78528L0 55.3863L0 154.711L84.0179 205.394L168.036 154.711Z"
        fill="#5FDFE9" />
    <path opacity="0.75" fill-rule="evenodd" clip-rule="evenodd"
        d="M164.676 0L221 31.3625V97.9978L164.676 132.107L111.202 99.724L117.328 89.6072L164.676 118.28L209.173 91.3333V38.3141L164.676 13.5372L117.142 40.005L111.388 29.6716L164.676 0Z"
        fill="#5FDFE9" />
    <defs>
        <linearGradient id="paint0_linear_14_91" x1="151" y1="139" x2="1022.54" y2="139" gradientUnits="userSpaceOnUse">
            <stop stop-color="#C932F3" />
            <stop offset="0.5" stop-color="#748BCF" />
            <stop offset="1" stop-color="#5FDFE9" />
        </linearGradient>
    </defs>
</svg>